<?xml version="1.0" encoding="utf-8"?>
<!-- Generator: Adobe Illustrator 27.7.0, SVG Export Plug-In . SVG Version: 6.00 Build 0)  -->
<svg version="1.1" id="Camada_1" xmlns="http://www.w3.org/2000/svg" xmlns:xlink="http://www.w3.org/1999/xlink" x="0px" y="0px"
	 viewBox="0 0 1080 1080" style="enable-background:new 0 0 1080 1080;" xml:space="preserve">
<style type="text/css">
	.st0{fill:#022751;}
</style>
<path class="st0" d="M759.3,303.13l10.03-162.77L494.08,28.15L337.1,171.02l5.4,32.22l-106.86-13.98l-87.88,78.91l35.11,293.18
	h717.03l23.3-211.49L759.3,303.13z M160.05,272.79l72.81-65.38V549.7h-39.64L160.05,272.79z M244.5,549.7V202.16l100.01,13.09
	l41.72,248.81H426v-249.9l-71.42-9.35l-4.94-29.46L489.6,47.97l5.71,501.73H244.5z M356.59,216.83l57.76,7.56v228.03h-18.26
	L356.59,216.83z M889.47,549.7H506.97L501.2,43.64l255.99,104.35l-9.36,151.87l-43.3-12.35V399.2h48.85l5.19-84.17l151.99,43.34
	L889.47,549.7z M747.09,311.76l-4.67,75.79h-26.25v-84.6L747.09,311.76z"/>
<g>
	<g>
		<g>
			<path class="st0" d="M387.28,813.27c0,46.63-18.16,74.7-62.73,74.7h-76.76V863.2h63.56c22.29,0,32.6-16.51,32.6-49.94V623.42
				h-32.19v-24.76h75.52V813.27z"/>
			<path class="st0" d="M534.61,887.96H427.3v-289.3h106.89c46.63,0,64.38,27.65,64.38,75.94c0,44.57-13.62,57.37-30.95,65.62
				c19.4,6.6,35.49,25.18,35.49,68.92C603.11,860.73,582.48,887.96,534.61,887.96z M527.59,752.6h-39.21v-24.35h39.21
				c23.94,0,28.48-14.03,28.48-49.94c0-40.45-12.79-54.89-31.78-54.89h-53.65V863.2h53.65c20.63,0,35.08-13.62,35.08-53.24
				C559.37,768.69,551.53,752.6,527.59,752.6z"/>
			<path class="st0" d="M809.87,887.96h-37.56L666.67,652.73v235.24h-33.84v-289.3h53.65l89.14,205.94V598.66h34.25V887.96z"/>
		</g>
	</g>
	<g>
		<g>
			<path class="st0" d="M257.11,998.37c0,8.92,2.53,13.32,8.48,13.32h19.16v6.61h-22.68c-11.89,0-16.51-7.49-16.51-19.93V961.6
				c0-12.99,4.73-20.48,16.51-20.48h22.46v6.61h-18.94c-5.95,0-8.48,3.19-8.48,13.87V998.37z"/>
			<path class="st0" d="M308.52,941.12h16.95c11.78,0,16.51,7.49,16.51,20.48v36.77c0,12.44-4.62,19.93-16.51,19.93h-16.95
				c-11.89,0-16.51-7.49-16.51-19.93V961.6C292.01,948.61,296.74,941.12,308.52,941.12z M330.43,961.6
				c0-10.68-2.53-13.87-8.48-13.87h-9.91c-5.95,0-8.48,3.19-8.48,13.87v36.77c0,8.92,2.53,13.32,8.48,13.32h9.91
				c5.95,0,8.48-4.4,8.48-13.32V961.6z"/>
			<path class="st0" d="M399.13,1018.3h-10.02l-28.18-62.76v62.76h-9.03v-77.18h14.31L390,996.06v-54.94h9.14V1018.3z"/>
			<path class="st0" d="M433.7,1018.3h-24.66v-6.61h22.46c6.28,0,9.47-2.42,9.47-14.97c0-11.01-1.76-12.99-10.57-12.99h-8.37
				c-11.12,0-14.97-5.39-14.97-21.14c0-13.54,4.51-21.47,16.95-21.47h21.47v6.61h-18.72c-6.06,0-9.03,2.75-9.03,13.32
				c0,10.24,1.21,12.66,9.03,12.66h7.82c11.89,0,17.07,3.74,17.07,21.36C451.65,1010.92,446.7,1018.3,433.7,1018.3z"/>
			<path class="st0" d="M495.8,947.73h-15.85v70.57h-11.56v-70.57h-15.85v-6.61h43.27V947.73z"/>
			<path class="st0" d="M538.63,981.42c5.06,1.76,10.02,5.5,10.02,19.16v17.73h-11.56v-17.73c0-12.22-2.97-15.85-9.03-15.85h-9.58
				v-6.5h9.8c5.61,0,8.59-3.63,8.59-15.3c0-11.67-2.97-15.19-8.59-15.19h-14.53v70.57h-11.56v-77.18h28.4
				c12.99,0,17.95,5.95,17.95,20.7C548.54,976.57,543.69,979.99,538.63,981.42z"/>
			<path class="st0" d="M557.34,941.12h11.89v57.25c0,10.24,2.53,13.32,8.48,13.32h9.47c6.06,0,8.48-3.08,8.48-13.32v-57.25h11.45
				v57.25c0,12.44-4.84,19.93-16.73,19.93h-16.29c-12.55,0-16.74-7.49-16.74-19.93V941.12z"/>
			<path class="st0" d="M628.25,998.37c0,8.92,2.53,13.32,8.48,13.32h19.16v6.61H633.2c-11.89,0-16.51-7.49-16.51-19.93V961.6
				c0-12.99,4.73-20.48,16.51-20.48h22.46v6.61h-18.94c-5.95,0-8.48,3.19-8.48,13.87V998.37z M641.35,1042.52h-6.83v-20.04h10.9
				L641.35,1042.52z"/>
			<path class="st0" d="M679.66,941.12h16.96c11.78,0,16.51,7.49,16.51,20.48v36.77c0,12.44-4.62,19.93-16.51,19.93h-16.96
				c-11.89,0-16.51-7.49-16.51-19.93V961.6C663.15,948.61,667.88,941.12,679.66,941.12z M679.44,929.12c-3.08,0-5.07,0.55-7.49,2.53
				v-6.5c2.2-1.87,5.06-2.53,8.04-2.53c3.19,0,5.95,1.1,9.36,2.42c2.31,0.77,4.62,1.54,7.38,1.54c3.08,0,5.06-0.55,7.49-2.53v6.5
				c-2.2,1.87-5.06,2.53-8.04,2.53c-3.19,0-5.95-1.1-9.36-2.42C684.51,929.89,682.2,929.12,679.44,929.12z M701.57,961.6
				c0-10.68-2.53-13.87-8.48-13.87h-9.91c-5.95,0-8.48,3.19-8.48,13.87v36.77c0,8.92,2.53,13.32,8.48,13.32h9.91
				c5.95,0,8.48-4.4,8.48-13.32V961.6z"/>
			<path class="st0" d="M762.35,1018.3h-39.08v-77.18h39.08v6.61h-27.52v27.96h19.71v6.5h-19.71v29.51h27.52V1018.3z"/>
			<path class="st0" d="M794.16,1018.3H769.5v-6.61h22.46c6.28,0,9.47-2.42,9.47-14.97c0-11.01-1.76-12.99-10.57-12.99h-8.37
				c-11.12,0-14.97-5.39-14.97-21.14c0-13.54,4.51-21.47,16.95-21.47h21.47v6.61h-18.72c-6.05,0-9.03,2.75-9.03,13.32
				c0,10.24,1.21,12.66,9.03,12.66h7.82c11.89,0,17.07,3.74,17.07,21.36C812.11,1010.92,807.15,1018.3,794.16,1018.3z"/>
		</g>
	</g>
</g>
</svg>
